<svg width="46" height="46" viewBox="0 0 46 46" fill="none" xmlns="http://www.w3.org/2000/svg">
<circle cx="11" cy="37" r="2" fill="url(#paint0_linear_654_2115)"/>
<path d="M13.48 19.976C14.504 19.976 15.3253 20.3173 15.944 21C16.5627 21.672 16.872 22.6 16.872 23.784V29H14.152V24.152C14.152 23.5547 13.9973 23.0907 13.688 22.76C13.3787 22.4293 12.9627 22.264 12.44 22.264C11.9173 22.264 11.5013 22.4293 11.192 22.76C10.8827 23.0907 10.728 23.5547 10.728 24.152V29H7.992V17.16H10.728V21.272C11.0053 20.8773 11.384 20.5627 11.864 20.328C12.344 20.0933 12.8827 19.976 13.48 19.976ZM27.5893 20.072V29H24.8533V27.784C24.5759 28.1787 24.1973 28.4987 23.7173 28.744C23.2479 28.9787 22.7253 29.096 22.1493 29.096C21.4666 29.096 20.8639 28.9467 20.3413 28.648C19.8186 28.3387 19.4133 27.896 19.1253 27.32C18.8373 26.744 18.6933 26.0667 18.6933 25.288V20.072H21.4133V24.92C21.4133 25.5173 21.5679 25.9813 21.8773 26.312C22.1866 26.6427 22.6026 26.808 23.1253 26.808C23.6586 26.808 24.0799 26.6427 24.3893 26.312C24.6986 25.9813 24.8533 25.5173 24.8533 24.92V20.072H27.5893ZM37.9705 24.392C37.9705 24.648 37.9545 24.9147 37.9225 25.192H31.7305C31.7732 25.7467 31.9492 26.1733 32.2585 26.472C32.5785 26.76 32.9678 26.904 33.4265 26.904C34.1092 26.904 34.5838 26.616 34.8505 26.04H37.7625C37.6132 26.6267 37.3412 27.1547 36.9465 27.624C36.5625 28.0933 36.0772 28.4613 35.4905 28.728C34.9038 28.9947 34.2478 29.128 33.5225 29.128C32.6478 29.128 31.8692 28.9413 31.1865 28.568C30.5038 28.1947 29.9705 27.6613 29.5865 26.968C29.2025 26.2747 29.0105 25.464 29.0105 24.536C29.0105 23.608 29.1972 22.7973 29.5705 22.104C29.9545 21.4107 30.4878 20.8773 31.1705 20.504C31.8532 20.1307 32.6372 19.944 33.5225 19.944C34.3865 19.944 35.1545 20.1253 35.8265 20.488C36.4985 20.8507 37.0212 21.368 37.3945 22.04C37.7785 22.712 37.9705 23.496 37.9705 24.392ZM35.1705 23.672C35.1705 23.2027 35.0105 22.8293 34.6905 22.552C34.3705 22.2747 33.9705 22.136 33.4905 22.136C33.0318 22.136 32.6425 22.2693 32.3225 22.536C32.0132 22.8027 31.8212 23.1813 31.7465 23.672H35.1705Z" fill="url(#paint1_linear_654_2115)"/>
<path d="M46 23C46 35.7025 35.7025 46 23 46C10.2975 46 0 35.7025 0 23C0 10.2975 10.2975 0 23 0C35.7025 0 46 10.2975 46 23ZM1.15 23C1.15 35.0674 10.9326 44.85 23 44.85C35.0674 44.85 44.85 35.0674 44.85 23C44.85 10.9326 35.0674 1.15 23 1.15C10.9326 1.15 1.15 10.9326 1.15 23Z" fill="url(#paint2_linear_654_2115)"/>
<circle cx="33.5" cy="7.5" r="1.5" fill="url(#paint3_linear_654_2115)"/>
<defs>
<linearGradient id="paint0_linear_654_2115" x1="12.7105" y1="11.75" x2="-1.69664" y2="27.0237" gradientUnits="userSpaceOnUse">
<stop offset="0.684829" stop-color="#386DFF"/>
<stop offset="0.809139" stop-color="#38FFCB"/>
<stop offset="0.993545" stop-color="#38D0FF"/>
</linearGradient>
<linearGradient id="paint1_linear_654_2115" x1="36.6842" y1="-128.5" x2="-44.9673" y2="-13.0836" gradientUnits="userSpaceOnUse">
<stop offset="0.684829" stop-color="#386DFF"/>
<stop offset="0.809139" stop-color="#38FFCB"/>
<stop offset="0.993545" stop-color="#38D0FF"/>
</linearGradient>
<linearGradient id="paint2_linear_654_2115" x1="42.6711" y1="-267.375" x2="-123.011" y2="-91.728" gradientUnits="userSpaceOnUse">
<stop offset="0.684829" stop-color="#386DFF"/>
<stop offset="0.809139" stop-color="#38FFCB"/>
<stop offset="0.993545" stop-color="#38D0FF"/>
</linearGradient>
<linearGradient id="paint3_linear_654_2115" x1="34.7829" y1="-11.4375" x2="23.9775" y2="0.0177391" gradientUnits="userSpaceOnUse">
<stop offset="0.684829" stop-color="#386DFF"/>
<stop offset="0.809139" stop-color="#38FFCB"/>
<stop offset="0.993545" stop-color="#38D0FF"/>
</linearGradient>
</defs>
</svg>
