<svg width="130" height="46" viewBox="0 0 130 46" fill="none" xmlns="http://www.w3.org/2000/svg">
<circle cx="11" cy="37" r="2" fill="url(#paint0_linear_654_2114)"/>
<path d="M13.48 19.976C14.504 19.976 15.3253 20.3173 15.944 21C16.5627 21.672 16.872 22.6 16.872 23.784V29H14.152V24.152C14.152 23.5547 13.9973 23.0907 13.688 22.76C13.3787 22.4293 12.9627 22.264 12.44 22.264C11.9173 22.264 11.5013 22.4293 11.192 22.76C10.8827 23.0907 10.728 23.5547 10.728 24.152V29H7.992V17.16H10.728V21.272C11.0053 20.8773 11.384 20.5627 11.864 20.328C12.344 20.0933 12.8827 19.976 13.48 19.976ZM27.5893 20.072V29H24.8533V27.784C24.5759 28.1787 24.1973 28.4987 23.7173 28.744C23.2479 28.9787 22.7253 29.096 22.1493 29.096C21.4666 29.096 20.8639 28.9467 20.3413 28.648C19.8186 28.3387 19.4133 27.896 19.1253 27.32C18.8373 26.744 18.6933 26.0667 18.6933 25.288V20.072H21.4133V24.92C21.4133 25.5173 21.5679 25.9813 21.8773 26.312C22.1866 26.6427 22.6026 26.808 23.1253 26.808C23.6586 26.808 24.0799 26.6427 24.3893 26.312C24.6986 25.9813 24.8533 25.5173 24.8533 24.92V20.072H27.5893ZM37.9705 24.392C37.9705 24.648 37.9545 24.9147 37.9225 25.192H31.7305C31.7732 25.7467 31.9492 26.1733 32.2585 26.472C32.5785 26.76 32.9678 26.904 33.4265 26.904C34.1092 26.904 34.5838 26.616 34.8505 26.04H37.7625C37.6132 26.6267 37.3412 27.1547 36.9465 27.624C36.5625 28.0933 36.0772 28.4613 35.4905 28.728C34.9038 28.9947 34.2478 29.128 33.5225 29.128C32.6478 29.128 31.8692 28.9413 31.1865 28.568C30.5038 28.1947 29.9705 27.6613 29.5865 26.968C29.2025 26.2747 29.0105 25.464 29.0105 24.536C29.0105 23.608 29.1972 22.7973 29.5705 22.104C29.9545 21.4107 30.4878 20.8773 31.1705 20.504C31.8532 20.1307 32.6372 19.944 33.5225 19.944C34.3865 19.944 35.1545 20.1253 35.8265 20.488C36.4985 20.8507 37.0212 21.368 37.3945 22.04C37.7785 22.712 37.9705 23.496 37.9705 24.392ZM35.1705 23.672C35.1705 23.2027 35.0105 22.8293 34.6905 22.552C34.3705 22.2747 33.9705 22.136 33.4905 22.136C33.0318 22.136 32.6425 22.2693 32.3225 22.536C32.0132 22.8027 31.8212 23.1813 31.7465 23.672H35.1705Z" fill="url(#paint1_linear_654_2114)"/>
<path d="M60.096 20.008C60.768 20.008 61.3653 20.1573 61.888 20.456C62.4107 20.744 62.816 21.176 63.104 21.752C63.4027 22.3173 63.552 23 63.552 23.8V29H61.312V24.104C61.312 23.4 61.136 22.8613 60.784 22.488C60.432 22.104 59.952 21.912 59.344 21.912C58.7253 21.912 58.2347 22.104 57.872 22.488C57.52 22.8613 57.344 23.4 57.344 24.104V29H55.104V17.16H57.344V21.24C57.632 20.856 58.016 20.5573 58.496 20.344C58.976 20.12 59.5093 20.008 60.096 20.008ZM65.1061 24.536C65.1061 23.64 65.2821 22.8453 65.6341 22.152C65.9968 21.4587 66.4821 20.9253 67.0901 20.552C67.7088 20.1787 68.3968 19.992 69.1541 19.992C69.8155 19.992 70.3915 20.1253 70.8821 20.392C71.3835 20.6587 71.7835 20.9947 72.0821 21.4V20.136H74.3381V29H72.0821V27.704C71.7941 28.12 71.3941 28.4667 70.8821 28.744C70.3808 29.0107 69.7995 29.144 69.1381 29.144C68.3915 29.144 67.7088 28.952 67.0901 28.568C66.4821 28.184 65.9968 27.6453 65.6341 26.952C65.2821 26.248 65.1061 25.4427 65.1061 24.536ZM72.0821 24.568C72.0821 24.024 71.9755 23.56 71.7621 23.176C71.5488 22.7813 71.2608 22.4827 70.8981 22.28C70.5355 22.0667 70.1461 21.96 69.7301 21.96C69.3141 21.96 68.9301 22.0613 68.5781 22.264C68.2261 22.4667 67.9381 22.7653 67.7141 23.16C67.5008 23.544 67.3941 24.0027 67.3941 24.536C67.3941 25.0693 67.5008 25.5387 67.7141 25.944C67.9381 26.3387 68.2261 26.6427 68.5781 26.856C68.9408 27.0693 69.3248 27.176 69.7301 27.176C70.1461 27.176 70.5355 27.0747 70.8981 26.872C71.2608 26.6587 71.5488 26.36 71.7621 25.976C71.9755 25.5813 72.0821 25.112 72.0821 24.568ZM78.7659 21.512C79.0539 21.0427 79.4272 20.6747 79.8859 20.408C80.3552 20.1413 80.8885 20.008 81.4859 20.008V22.36H80.8939C80.1899 22.36 79.6565 22.5253 79.2939 22.856C78.9419 23.1867 78.7659 23.7627 78.7659 24.584V29H76.5259V20.136H78.7659V21.512ZM94.0026 20.008C95.0906 20.008 95.9653 20.344 96.6266 21.016C97.2986 21.6773 97.6346 22.6053 97.6346 23.8V29H95.3946V24.104C95.3946 23.4107 95.2186 22.8827 94.8666 22.52C94.5146 22.1467 94.0346 21.96 93.4266 21.96C92.8186 21.96 92.3333 22.1467 91.9706 22.52C91.6186 22.8827 91.4426 23.4107 91.4426 24.104V29H89.2026V24.104C89.2026 23.4107 89.0266 22.8827 88.6746 22.52C88.3226 22.1467 87.8426 21.96 87.2346 21.96C86.616 21.96 86.1253 22.1467 85.7626 22.52C85.4106 22.8827 85.2346 23.4107 85.2346 24.104V29H82.9946V20.136H85.2346V21.208C85.5226 20.8347 85.8906 20.5413 86.3386 20.328C86.7973 20.1147 87.2986 20.008 87.8426 20.008C88.536 20.008 89.1546 20.1573 89.6986 20.456C90.2426 20.744 90.664 21.16 90.9626 21.704C91.2506 21.192 91.6666 20.7813 92.2106 20.472C92.7653 20.1627 93.3626 20.008 94.0026 20.008ZM103.696 29.144C102.843 29.144 102.075 28.9573 101.392 28.584C100.71 28.2 100.171 27.6613 99.7763 26.968C99.3923 26.2747 99.2003 25.4747 99.2003 24.568C99.2003 23.6613 99.3976 22.8613 99.7923 22.168C100.198 21.4747 100.747 20.9413 101.44 20.568C102.134 20.184 102.907 19.992 103.76 19.992C104.614 19.992 105.387 20.184 106.08 20.568C106.774 20.9413 107.318 21.4747 107.712 22.168C108.118 22.8613 108.32 23.6613 108.32 24.568C108.32 25.4747 108.112 26.2747 107.696 26.968C107.291 27.6613 106.736 28.2 106.032 28.584C105.339 28.9573 104.56 29.144 103.696 29.144ZM103.696 27.192C104.102 27.192 104.48 27.096 104.832 26.904C105.195 26.7013 105.483 26.4027 105.696 26.008C105.91 25.6133 106.016 25.1333 106.016 24.568C106.016 23.7253 105.792 23.08 105.344 22.632C104.907 22.1733 104.368 21.944 103.728 21.944C103.088 21.944 102.55 22.1733 102.112 22.632C101.686 23.08 101.472 23.7253 101.472 24.568C101.472 25.4107 101.68 26.0613 102.096 26.52C102.523 26.968 103.056 27.192 103.696 27.192ZM114.875 20.008C115.931 20.008 116.785 20.344 117.435 21.016C118.086 21.6773 118.411 22.6053 118.411 23.8V29H116.171V24.104C116.171 23.4 115.995 22.8613 115.643 22.488C115.291 22.104 114.811 21.912 114.203 21.912C113.585 21.912 113.094 22.104 112.731 22.488C112.379 22.8613 112.203 23.4 112.203 24.104V29H109.963V20.136H112.203V21.24C112.502 20.856 112.881 20.5573 113.339 20.344C113.809 20.12 114.321 20.008 114.875 20.008ZM129.022 20.136L123.534 33.192H121.15L123.07 28.776L119.518 20.136H122.03L124.318 26.328L126.638 20.136H129.022Z" fill="url(#paint2_linear_654_2114)"/>
<path d="M46 23C46 35.7025 35.7025 46 23 46C10.2975 46 0 35.7025 0 23C0 10.2975 10.2975 0 23 0C35.7025 0 46 10.2975 46 23ZM1.15 23C1.15 35.0674 10.9326 44.85 23 44.85C35.0674 44.85 44.85 35.0674 44.85 23C44.85 10.9326 35.0674 1.15 23 1.15C10.9326 1.15 1.15 10.9326 1.15 23Z" fill="url(#paint3_linear_654_2114)"/>
<defs>
<linearGradient id="paint0_linear_654_2114" x1="12.7105" y1="11.75" x2="-1.69664" y2="27.0237" gradientUnits="userSpaceOnUse">
<stop offset="0.684829" stop-color="#386DFF"/>
<stop offset="0.809139" stop-color="#38FFCB"/>
<stop offset="0.993545" stop-color="#38D0FF"/>
</linearGradient>
<linearGradient id="paint1_linear_654_2114" x1="36.6842" y1="-128.5" x2="-44.9673" y2="-13.0836" gradientUnits="userSpaceOnUse">
<stop offset="0.684829" stop-color="#386DFF"/>
<stop offset="0.809139" stop-color="#38FFCB"/>
<stop offset="0.993545" stop-color="#38D0FF"/>
</linearGradient>
<linearGradient id="paint2_linear_654_2114" x1="124.5" y1="-128.5" x2="77.118" y2="30.567" gradientUnits="userSpaceOnUse">
<stop offset="0.684829" stop-color="#386DFF"/>
<stop offset="0.809139" stop-color="#38FFCB"/>
<stop offset="0.993545" stop-color="#38D0FF"/>
</linearGradient>
<linearGradient id="paint3_linear_654_2114" x1="42.6711" y1="-267.375" x2="-123.011" y2="-91.728" gradientUnits="userSpaceOnUse">
<stop offset="0.684829" stop-color="#386DFF"/>
<stop offset="0.809139" stop-color="#38FFCB"/>
<stop offset="0.993545" stop-color="#38D0FF"/>
</linearGradient>
</defs>
</svg>
