<svg width="1126" height="438" viewBox="0 0 1126 438" fill="none" xmlns="http://www.w3.org/2000/svg">
<path d="M132.445 227.213V265.578H107.934V174.64H131.557V210.34H132.267C133.807 205.989 136.367 202.599 139.949 200.172C143.531 197.715 147.838 196.486 152.87 196.486C157.696 196.486 161.884 197.581 165.437 199.772C169.019 201.963 171.786 204.982 173.74 208.83C175.723 212.679 176.7 217.089 176.671 222.063V265.578H152.16V227.213C152.19 223.839 151.346 221.189 149.629 219.265C147.942 217.341 145.529 216.379 142.391 216.379C140.408 216.379 138.661 216.823 137.152 217.711C135.671 218.57 134.517 219.813 133.688 221.441C132.889 223.04 132.474 224.964 132.445 227.213ZM232.997 235.739V197.374H257.507V265.578H234.24V252.612H233.529C232.049 256.964 229.459 260.368 225.759 262.825C222.059 265.252 217.663 266.466 212.571 266.466C207.805 266.466 203.631 265.371 200.049 263.18C196.497 260.99 193.729 257.97 191.746 254.122C189.792 250.274 188.8 245.863 188.771 240.89V197.374H213.281V235.739C213.311 239.114 214.17 241.763 215.857 243.687C217.574 245.611 219.972 246.573 223.05 246.573C225.093 246.573 226.854 246.144 228.334 245.286C229.844 244.398 230.998 243.154 231.798 241.556C232.627 239.928 233.026 237.989 232.997 235.739ZM302.655 266.821C295.373 266.821 289.097 265.43 283.828 262.647C278.588 259.835 274.547 255.809 271.705 250.57C268.893 245.301 267.487 238.995 267.487 231.654C267.487 224.608 268.908 218.451 271.75 213.182C274.592 207.913 278.603 203.813 283.783 200.882C288.964 197.952 295.077 196.486 302.122 196.486C307.273 196.486 311.935 197.285 316.109 198.884C320.283 200.483 323.85 202.806 326.81 205.855C329.77 208.875 332.05 212.545 333.648 216.867C335.247 221.189 336.046 226.059 336.046 231.476V237.16H275.125V223.661H313.489C313.46 221.707 312.956 219.99 311.979 218.51C311.032 217.001 309.744 215.831 308.116 215.002C306.518 214.144 304.697 213.715 302.655 213.715C300.671 213.715 298.851 214.144 297.193 215.002C295.535 215.831 294.203 216.986 293.197 218.466C292.22 219.946 291.702 221.678 291.643 223.661V238.226C291.643 240.416 292.101 242.37 293.019 244.087C293.937 245.804 295.254 247.151 296.971 248.128C298.688 249.104 300.76 249.593 303.188 249.593C304.875 249.593 306.414 249.356 307.806 248.882C309.226 248.409 310.44 247.728 311.447 246.84C312.453 245.922 313.193 244.827 313.667 243.554H336.046C335.277 248.29 333.456 252.405 330.585 255.898C327.713 259.362 323.909 262.055 319.173 263.98C314.466 265.874 308.96 266.821 302.655 266.821Z" fill="url(#paint0_radial_537_4523)"/>
<path d="M545.817 204.989C550.985 204.989 555.653 206.115 559.821 208.365C563.989 210.533 567.24 213.825 569.574 218.243C571.992 222.662 573.201 228.038 573.201 234.374V274.762H561.947V235.999C561.947 229.164 560.238 223.954 556.82 220.369C553.403 216.701 548.734 214.867 542.816 214.867C536.814 214.867 532.021 216.743 528.436 220.494C524.935 224.245 523.184 229.705 523.184 236.874V274.762H511.806V182.232H523.184V215.993C525.435 212.492 528.52 209.782 532.437 207.865C536.439 205.948 540.899 204.989 545.817 204.989ZM587.536 240.251C587.536 233.248 588.953 227.121 591.788 221.87C594.622 216.535 598.498 212.408 603.416 209.491C608.418 206.573 613.962 205.114 620.047 205.114C626.049 205.114 631.259 206.406 635.677 208.99C640.095 211.575 643.388 214.826 645.555 218.744V206.24H657.059V274.762H645.555V262.008C643.304 266.009 639.928 269.343 635.427 272.011C631.009 274.595 625.84 275.887 619.922 275.887C613.836 275.887 608.335 274.387 603.416 271.386C598.498 268.385 594.622 264.175 591.788 258.757C588.953 253.338 587.536 247.169 587.536 240.251ZM645.555 240.376C645.555 235.207 644.513 230.706 642.429 226.871C640.345 223.037 637.511 220.119 633.926 218.118C630.425 216.034 626.549 214.992 622.298 214.992C618.046 214.992 614.17 215.993 610.669 217.993C607.168 219.994 604.375 222.912 602.291 226.746C600.207 230.581 599.165 235.082 599.165 240.251C599.165 245.502 600.207 250.087 602.291 254.005C604.375 257.84 607.168 260.799 610.669 262.883C614.17 264.884 618.046 265.884 622.298 265.884C626.549 265.884 630.425 264.884 633.926 262.883C637.511 260.799 640.345 257.84 642.429 254.005C644.513 250.087 645.555 245.544 645.555 240.376ZM687.666 217.368C689.667 213.45 692.501 210.408 696.169 208.24C699.92 206.073 704.463 204.989 709.798 204.989V216.743H706.797C694.043 216.743 687.666 223.662 687.666 237.5V274.762H676.288V206.24H687.666V217.368ZM805.335 204.989C810.67 204.989 815.422 206.115 819.59 208.365C823.758 210.533 827.051 213.825 829.468 218.243C831.885 222.662 833.094 228.038 833.094 234.374V274.762H821.841V235.999C821.841 229.164 820.132 223.954 816.714 220.369C813.379 216.701 808.836 214.867 803.084 214.867C797.166 214.867 792.456 216.785 788.955 220.619C785.454 224.37 783.703 229.831 783.703 237V274.762H772.45V235.999C772.45 229.164 770.741 223.954 767.323 220.369C763.988 216.701 759.445 214.867 753.694 214.867C747.775 214.867 743.065 216.785 739.564 220.619C736.063 224.37 734.312 229.831 734.312 237V274.762H722.934V206.24H734.312V216.118C736.563 212.533 739.564 209.782 743.315 207.865C747.15 205.948 751.359 204.989 755.944 204.989C761.696 204.989 766.781 206.281 771.199 208.865C775.617 211.45 778.91 215.242 781.077 220.244C782.995 215.409 786.162 211.658 790.58 208.99C794.999 206.323 799.917 204.989 805.335 204.989ZM881.644 275.887C875.225 275.887 869.39 274.428 864.138 271.511C858.97 268.593 854.885 264.467 851.884 259.132C848.967 253.713 847.508 247.461 847.508 240.376C847.508 233.373 849.008 227.205 852.009 221.87C855.094 216.451 859.262 212.325 864.513 209.491C869.765 206.573 875.642 205.114 882.144 205.114C888.646 205.114 894.523 206.573 899.775 209.491C905.027 212.325 909.153 216.41 912.154 221.745C915.238 227.08 916.78 233.29 916.78 240.376C916.78 247.461 915.197 253.713 912.029 259.132C908.945 264.467 904.735 268.593 899.4 271.511C894.065 274.428 888.146 275.887 881.644 275.887ZM881.644 265.884C885.729 265.884 889.563 264.925 893.148 263.008C896.732 261.091 899.608 258.215 901.776 254.38C904.026 250.546 905.152 245.877 905.152 240.376C905.152 234.874 904.068 230.206 901.901 226.371C899.733 222.537 896.899 219.702 893.398 217.868C889.897 215.951 886.104 214.992 882.019 214.992C877.851 214.992 874.017 215.951 870.515 217.868C867.098 219.702 864.347 222.537 862.263 226.371C860.179 230.206 859.137 234.874 859.137 240.376C859.137 245.961 860.137 250.671 862.138 254.505C864.222 258.34 866.973 261.216 870.39 263.133C873.808 264.967 877.559 265.884 881.644 265.884ZM965.127 204.989C973.463 204.989 980.215 207.532 985.384 212.617C990.552 217.618 993.136 224.871 993.136 234.374V274.762H981.882V235.999C981.882 229.164 980.174 223.954 976.756 220.369C973.338 216.701 968.67 214.867 962.751 214.867C956.749 214.867 951.956 216.743 948.372 220.494C944.871 224.245 943.12 229.705 943.12 236.874V274.762H931.741V206.24H943.12V215.993C945.371 212.492 948.413 209.782 952.248 207.865C956.166 205.948 960.459 204.989 965.127 204.989ZM1070.74 206.24L1029.48 307.022H1017.73L1031.23 274.011L1003.6 206.24H1016.22L1037.73 261.758L1058.99 206.24H1070.74Z" fill="url(#paint1_radial_537_4523)"/>
<path d="M437.641 218.821C437.641 339.672 339.672 437.641 218.821 437.641C97.9694 437.641 0 339.672 0 218.821C0 97.9694 97.9694 0 218.821 0C339.672 0 437.641 97.9694 437.641 218.821ZM10.941 218.821C10.941 333.629 104.012 426.7 218.821 426.7C333.629 426.7 426.7 333.629 426.7 218.821C426.7 104.012 333.629 10.941 218.821 10.941C104.012 10.941 10.941 104.012 10.941 218.821Z" fill="url(#paint2_radial_537_4523)"/>
<circle cx="85.964" cy="308.693" r="15.63" fill="url(#paint3_radial_537_4523)"/>
<circle cx="291.109" cy="115.273" r="9.76878" fill="url(#paint4_radial_537_4523)"/>
<defs>
<radialGradient id="paint0_radial_537_4523" cx="0" cy="0" r="1" gradientUnits="userSpaceOnUse" gradientTransform="translate(58.7016 169.198) rotate(37.9462) scale(205.523 208.709)">
<stop stop-color="#1994FF"/>
<stop offset="1" stop-color="#FA68FF"/>
</radialGradient>
<radialGradient id="paint1_radial_537_4523" cx="0" cy="0" r="1" gradientUnits="userSpaceOnUse" gradientTransform="translate(403.274 167.414) rotate(22.2771) scale(415.071 304.917)">
<stop stop-color="#1994FF"/>
<stop offset="1" stop-color="#FA68FF"/>
</radialGradient>
<radialGradient id="paint2_radial_537_4523" cx="0" cy="0" r="1" gradientUnits="userSpaceOnUse" gradientTransform="translate(-29.8392 71.3546) rotate(55.8287) scale(442.716 430.836)">
<stop stop-color="#1994FF"/>
<stop offset="1" stop-color="#FA68FF"/>
</radialGradient>
<radialGradient id="paint3_radial_537_4523" cx="0" cy="0" r="1" gradientUnits="userSpaceOnUse" gradientTransform="translate(68.2026 298.159) rotate(55.8287) scale(31.6226 30.774)">
<stop stop-color="#1994FF"/>
<stop offset="1" stop-color="#FA68FF"/>
</radialGradient>
<radialGradient id="paint4_radial_537_4523" cx="0" cy="0" r="1" gradientUnits="userSpaceOnUse" gradientTransform="translate(280.008 108.689) rotate(55.8287) scale(19.7641 19.2337)">
<stop stop-color="#1994FF"/>
<stop offset="1" stop-color="#FA68FF"/>
</radialGradient>
</defs>
</svg>
