<svg width="130" height="46" viewBox="0 0 130 46" fill="none" xmlns="http://www.w3.org/2000/svg">
<path d="M14.2691 19.976C15.2931 19.976 16.1144 20.3173 16.7331 21C17.3517 21.672 17.6611 22.6 17.6611 23.784V29H14.9411V24.152C14.9411 23.5547 14.7864 23.0907 14.4771 22.76C14.1677 22.4293 13.7517 22.264 13.2291 22.264C12.7064 22.264 12.2904 22.4293 11.9811 22.76C11.6717 23.0907 11.5171 23.5547 11.5171 24.152V29H8.78106V17.16H11.5171V21.272C11.7944 20.8773 12.1731 20.5627 12.6531 20.328C13.1331 20.0933 13.6717 19.976 14.2691 19.976ZM28.3783 20.072V29H25.6423V27.784C25.365 28.1787 24.9863 28.4987 24.5063 28.744C24.037 28.9787 23.5143 29.096 22.9383 29.096C22.2556 29.096 21.653 28.9467 21.1303 28.648C20.6076 28.3387 20.2023 27.896 19.9143 27.32C19.6263 26.744 19.4823 26.0667 19.4823 25.288V20.072H22.2023V24.92C22.2023 25.5173 22.357 25.9813 22.6663 26.312C22.9756 26.6427 23.3916 26.808 23.9143 26.808C24.4476 26.808 24.869 26.6427 25.1783 26.312C25.4876 25.9813 25.6423 25.5173 25.6423 24.92V20.072H28.3783ZM38.7596 24.392C38.7596 24.648 38.7436 24.9147 38.7116 25.192H32.5196C32.5622 25.7467 32.7382 26.1733 33.0476 26.472C33.3676 26.76 33.7569 26.904 34.2156 26.904C34.8982 26.904 35.3729 26.616 35.6396 26.04H38.5516C38.4022 26.6267 38.1302 27.1547 37.7356 27.624C37.3516 28.0933 36.8662 28.4613 36.2796 28.728C35.6929 28.9947 35.0369 29.128 34.3116 29.128C33.4369 29.128 32.6582 28.9413 31.9756 28.568C31.2929 28.1947 30.7596 27.6613 30.3756 26.968C29.9916 26.2747 29.7996 25.464 29.7996 24.536C29.7996 23.608 29.9862 22.7973 30.3596 22.104C30.7436 21.4107 31.2769 20.8773 31.9596 20.504C32.6422 20.1307 33.4262 19.944 34.3116 19.944C35.1756 19.944 35.9436 20.1253 36.6156 20.488C37.2876 20.8507 37.8102 21.368 38.1836 22.04C38.5676 22.712 38.7596 23.496 38.7596 24.392ZM35.9596 23.672C35.9596 23.2027 35.7996 22.8293 35.4796 22.552C35.1596 22.2747 34.7596 22.136 34.2796 22.136C33.8209 22.136 33.4316 22.2693 33.1116 22.536C32.8022 22.8027 32.6102 23.1813 32.5356 23.672H35.9596Z" fill="url(#paint0_angular_611_12600)"/>
<path d="M59.76 20.04C60.432 20.04 61.0293 20.184 61.552 20.472C62.0853 20.76 62.5013 21.1867 62.8 21.752C63.1093 22.3173 63.264 23 63.264 23.8V29H61.456V24.072C61.456 23.2827 61.2587 22.68 60.864 22.264C60.4693 21.8373 59.9307 21.624 59.248 21.624C58.5653 21.624 58.0213 21.8373 57.616 22.264C57.2213 22.68 57.024 23.2827 57.024 24.072V29H55.2V17.16H57.024V21.208C57.3333 20.8347 57.7227 20.5467 58.192 20.344C58.672 20.1413 59.1947 20.04 59.76 20.04ZM64.9826 24.552C64.9826 23.6667 65.164 22.8827 65.5266 22.2C65.9 21.5173 66.4013 20.9893 67.0306 20.616C67.6706 20.232 68.3746 20.04 69.1426 20.04C69.836 20.04 70.4386 20.1787 70.9506 20.456C71.4733 20.7227 71.8893 21.0587 72.1986 21.464V20.184H74.0386V29H72.1986V27.688C71.8893 28.104 71.468 28.4507 70.9346 28.728C70.4013 29.0053 69.7933 29.144 69.1106 29.144C68.3533 29.144 67.66 28.952 67.0306 28.568C66.4013 28.1733 65.9 27.6293 65.5266 26.936C65.164 26.232 64.9826 25.4373 64.9826 24.552ZM72.1986 24.584C72.1986 23.976 72.0706 23.448 71.8146 23C71.5693 22.552 71.244 22.2107 70.8386 21.976C70.4333 21.7413 69.996 21.624 69.5266 21.624C69.0573 21.624 68.62 21.7413 68.2146 21.976C67.8093 22.2 67.4786 22.536 67.2226 22.984C66.9773 23.4213 66.8546 23.944 66.8546 24.552C66.8546 25.16 66.9773 25.6933 67.2226 26.152C67.4786 26.6107 67.8093 26.9627 68.2146 27.208C68.6306 27.4427 69.068 27.56 69.5266 27.56C69.996 27.56 70.4333 27.4427 70.8386 27.208C71.244 26.9733 71.5693 26.632 71.8146 26.184C72.0706 25.7253 72.1986 25.192 72.1986 24.584ZM78.2584 21.464C78.525 21.016 78.877 20.6693 79.3144 20.424C79.7624 20.168 80.2904 20.04 80.8984 20.04V21.928H80.4344C79.7197 21.928 79.1757 22.1093 78.8024 22.472C78.4397 22.8347 78.2584 23.464 78.2584 24.36V29H76.4344V20.184H78.2584V21.464ZM93.247 20.04C93.9403 20.04 94.559 20.184 95.103 20.472C95.6577 20.76 96.0897 21.1867 96.399 21.752C96.719 22.3173 96.879 23 96.879 23.8V29H95.071V24.072C95.071 23.2827 94.8737 22.68 94.479 22.264C94.0843 21.8373 93.5457 21.624 92.863 21.624C92.1803 21.624 91.6363 21.8373 91.231 22.264C90.8363 22.68 90.639 23.2827 90.639 24.072V29H88.831V24.072C88.831 23.2827 88.6337 22.68 88.239 22.264C87.8443 21.8373 87.3057 21.624 86.623 21.624C85.9403 21.624 85.3963 21.8373 84.991 22.264C84.5963 22.68 84.399 23.2827 84.399 24.072V29H82.575V20.184H84.399V21.192C84.6977 20.8293 85.0763 20.5467 85.535 20.344C85.9937 20.1413 86.4843 20.04 87.007 20.04C87.711 20.04 88.3403 20.1893 88.895 20.488C89.4497 20.7867 89.8763 21.2187 90.175 21.784C90.4417 21.2507 90.8577 20.8293 91.423 20.52C91.9883 20.2 92.5963 20.04 93.247 20.04ZM103.024 29.144C102.192 29.144 101.44 28.9573 100.768 28.584C100.096 28.2 99.568 27.6667 99.184 26.984C98.8 26.2907 98.608 25.4907 98.608 24.584C98.608 23.688 98.8053 22.8933 99.2 22.2C99.5947 21.5067 100.133 20.9733 100.816 20.6C101.499 20.2267 102.261 20.04 103.104 20.04C103.947 20.04 104.709 20.2267 105.392 20.6C106.075 20.9733 106.613 21.5067 107.008 22.2C107.403 22.8933 107.6 23.688 107.6 24.584C107.6 25.48 107.397 26.2747 106.992 26.968C106.587 27.6613 106.032 28.2 105.328 28.584C104.635 28.9573 103.867 29.144 103.024 29.144ZM103.024 27.56C103.493 27.56 103.931 27.448 104.336 27.224C104.752 27 105.088 26.664 105.344 26.216C105.6 25.768 105.728 25.224 105.728 24.584C105.728 23.944 105.605 23.4053 105.36 22.968C105.115 22.52 104.789 22.184 104.384 21.96C103.979 21.736 103.541 21.624 103.072 21.624C102.603 21.624 102.165 21.736 101.76 21.96C101.365 22.184 101.051 22.52 100.816 22.968C100.581 23.4053 100.464 23.944 100.464 24.584C100.464 25.5333 100.704 26.2693 101.184 26.792C101.675 27.304 102.288 27.56 103.024 27.56ZM113.851 20.04C114.544 20.04 115.163 20.184 115.707 20.472C116.262 20.76 116.694 21.1867 117.003 21.752C117.312 22.3173 117.467 23 117.467 23.8V29H115.659V24.072C115.659 23.2827 115.462 22.68 115.067 22.264C114.672 21.8373 114.134 21.624 113.451 21.624C112.768 21.624 112.224 21.8373 111.819 22.264C111.424 22.68 111.227 23.2827 111.227 24.072V29H109.403V20.184H111.227V21.192C111.526 20.8293 111.904 20.5467 112.363 20.344C112.832 20.1413 113.328 20.04 113.851 20.04ZM127.73 20.184L122.322 33.144H120.434L122.226 28.856L118.754 20.184H120.786L123.266 26.904L125.842 20.184H127.73Z" fill="url(#paint1_angular_611_12600)"/>
<path d="M46 23C46 35.7025 35.7025 46 23 46C10.2975 46 0 35.7025 0 23C0 10.2975 10.2975 0 23 0C35.7025 0 46 10.2975 46 23ZM1.15 23C1.15 35.0674 10.9326 44.85 23 44.85C35.0674 44.85 44.85 35.0674 44.85 23C44.85 10.9326 35.0674 1.15 23 1.15C10.9326 1.15 1.15 10.9326 1.15 23Z" fill="url(#paint2_angular_611_12600)"/>
<circle cx="11" cy="38" r="2" fill="url(#paint3_angular_611_12600)"/>
<circle cx="34.5" cy="7.5" r="1.5" fill="url(#paint4_angular_611_12600)"/>
<defs>
<radialGradient id="paint0_angular_611_12600" cx="0" cy="0" r="1" gradientUnits="userSpaceOnUse" gradientTransform="translate(4.75 14.913) rotate(46.9716) scale(27.4781 28.7037)">
<stop offset="0.455" stop-color="#38FFCB"/>
<stop offset="0.735" stop-color="#386DFF"/>
<stop offset="1" stop-color="#38D0FF"/>
</radialGradient>
<radialGradient id="paint1_angular_611_12600" cx="0" cy="0" r="1" gradientUnits="userSpaceOnUse" gradientTransform="translate(48.8182 14.913) rotate(24.9465) scale(47.6252 38.1407)">
<stop offset="0.455" stop-color="#38FFCB"/>
<stop offset="0.735" stop-color="#386DFF"/>
<stop offset="1" stop-color="#38D0FF"/>
</radialGradient>
<radialGradient id="paint2_angular_611_12600" cx="0" cy="0" r="1" gradientUnits="userSpaceOnUse" gradientTransform="translate(-3.13636 7.5) rotate(55.8287) scale(46.5334 45.2847)">
<stop offset="0.455" stop-color="#38FFCB"/>
<stop offset="0.735" stop-color="#386DFF"/>
<stop offset="1" stop-color="#38D0FF"/>
</radialGradient>
<radialGradient id="paint3_angular_611_12600" cx="0" cy="0" r="1" gradientUnits="userSpaceOnUse" gradientTransform="translate(8.72727 36.6522) rotate(55.8287) scale(4.04638 3.9378)">
<stop offset="0.455" stop-color="#38FFCB"/>
<stop offset="0.735" stop-color="#386DFF"/>
<stop offset="1" stop-color="#38D0FF"/>
</radialGradient>
<radialGradient id="paint4_angular_611_12600" cx="0" cy="0" r="1" gradientUnits="userSpaceOnUse" gradientTransform="translate(32.7955 6.48913) rotate(55.8287) scale(3.03479 2.95335)">
<stop offset="0.455" stop-color="#38FFCB"/>
<stop offset="0.735" stop-color="#386DFF"/>
<stop offset="1" stop-color="#38D0FF"/>
</radialGradient>
</defs>
</svg>
